Coordinates
version=1
nRows=4
nColumns=114
inDegrees=yes

Units are S.I. units (second, meters, Newtons, ...)
If the header above contains a line with 'inDegrees', this indicates whether rotational values are in degrees (yes) or radians (no).

endheader 
time	pelvis_tilt	pelvis_list	pelvis_rotation	pelvis_tx	pelvis_ty	pelvis_tz	hip_flexion_l	hip_adduction_l	hip_rotation_l	hip_flexion_r	hip_adduction_r	hip_rotation_r	knee_angle_l	knee_angle_r	ankle_angle_l	ankle_angle_r	subtalar_angle_l	subtalar_angle_r	mtp_angle_l	mtp_angle_r	lumbar_extension	lumbar_bending	lumbar_rotation	arm_flex_l	arm_add_l	arm_rot_l	arm_flex_r	arm_add_r	arm_rot_r	elbow_flex_l	elbow_flex_r	pro_sup_l	pro_sup_r	addbrev_l/activation	addlong_l/activation	addmagDist_l/activation	addmagIsch_l/activation	addmagMid_l/activation	addmagProx_l/activation	bflh_l/activation	bfsh_l/activation	edl_l/activation	ehl_l/activation	fdl_l/activation	fhl_l/activation	gaslat_l/activation	gasmed_l/activation	glmax1_l/activation	glmax2_l/activation	glmax3_l/activation	glmed1_l/activation	glmed2_l/activation	glmed3_l/activation	glmin1_l/activation	glmin2_l/activation	glmin3_l/activation	grac_l/activation	iliacus_l/activation	perbrev_l/activation	perlong_l/activation	piri_l/activation	psoas_l/activation	recfem_l/activation	sart_l/activation	semimem_l/activation	semiten_l/activation	soleus_l/activation	tfl_l/activation	tibant_l/activation	tibpost_l/activation	vasint_l/activation	vaslat_l/activation	vasmed_l/activation	addbrev_r/activation	addlong_r/activation	addmagDist_r/activation	addmagIsch_r/activation	addmagMid_r/activation	addmagProx_r/activation	bflh_r/activation	bfsh_r/activation	edl_r/activation	ehl_r/activation	fdl_r/activation	fhl_r/activation	gaslat_r/activation	gasmed_r/activation	glmax1_r/activation	glmax2_r/activation	glmax3_r/activation	glmed1_r/activation	glmed2_r/activation	glmed3_r/activation	glmin1_r/activation	glmin2_r/activation	glmin3_r/activation	grac_r/activation	iliacus_r/activation	perbrev_r/activation	perlong_r/activation	piri_r/activation	psoas_r/activation	recfem_r/activation	sart_r/activation	semimem_r/activation	semiten_r/activation	soleus_r/activation	tfl_r/activation	tibant_r/activation	tibpost_r/activation	vasint_r/activation	vaslat_r/activation	vasmed_r/activation	
          7.82000000	         -6.35842179	        -12.77768964	        116.27720578	         -1.83882648	          1.40379985	          0.05478851	         25.81955547	        -26.18214282	          9.49568639	         47.97516696	        -28.04433917	          2.41552210	         59.16806924	         47.90517780	         -4.79010815	          1.22166806	        -19.11883048	        -23.58211449	         -0.00365179	          0.07223373	        -37.87603920	          8.93744864	         15.56461727	       -205.16843392	         -2.86303598	       -321.79768511	       -323.30517196	          3.41962388	         88.81222726	         86.69249986	         41.72224498	         78.01760299	         81.66332492	          0.02020654	          0.23244046	          0.01000695	          0.01000390	          0.01001845	          0.52063411	          0.99199540	          0.51488142	          0.29696454	          0.15498743	          0.01006897	          0.01002744	          0.28610181	          0.41979456	          0.01635733	          0.19575680	          0.45821779	          0.01000176	          0.01000314	          0.01000497	          0.01000558	          0.01001286	          0.02464582	          0.72203357	          0.01002837	          0.11375842	          0.15256468	          0.34062787	          0.84617334	          0.63679099	          0.88884177	          0.01558546	          0.27028528	          0.01000281	          0.03479853	          0.52012502	          0.01002107	          0.01000228	          0.01000083	          0.01000170	          0.05997991	          0.09610000	          0.01000928	          0.01000916	          0.07701541	          0.33381845	          0.19775195	          0.15804324	          0.11215620	          0.06245428	          0.01025114	          0.01015207	          0.01686600	          0.01199280	          0.01000378	          0.01000676	          0.41563620	          0.01000098	          0.01000161	          0.01000202	          0.01000295	          0.01000436	          0.01001294	          0.06165460	          0.01729041	          0.05681256	          0.10204133	          0.01362513	          0.41530819	          0.12034844	          0.38682626	          0.01377708	          0.01725175	          0.01846100	          0.17020753	          0.20549856	          0.01007963	          0.02057224	          0.06666308	          0.02776111	
          7.83000000	         -6.27353964	        -13.52236536	        118.21397335	         -1.82142691	          1.39993342	          0.05952918	         26.31693166	        -26.32116222	          8.83572842	         50.24476151	        -28.59325012	          1.96784434	         60.16981829	         51.43099656	         -5.33523544	          2.27408957	        -17.70369354	        -24.65947884	          0.03819474	          0.03797362	        -37.72616505	         10.40220721	         17.46705835	       -192.84036714	         -7.55333153	       -315.46313145	       -332.17809642	         -0.92358275	         56.76344326	         73.92083600	         47.94868850	         78.60762734	         82.20583030	          0.01684581	          0.19371042	          0.01000617	          0.01000385	          0.01001575	          0.45295608	          0.99732935	          0.52534163	          0.31803002	          0.15827428	          0.01006448	          0.01002321	          0.24053195	          0.36174442	          0.01363215	          0.16313154	          0.38185122	          0.01000155	          0.01000280	          0.01000440	          0.01000493	          0.01001100	          0.02054460	          0.60173102	          0.01004549	          0.12675809	          0.16705555	          0.28387608	          0.94871586	          0.57490735	          0.96293754	          0.01299059	          0.22524374	          0.01000206	          0.02900170	          0.53303376	          0.01001729	          0.01000192	          0.01000070	          0.01000144	          0.04998354	          0.08008343	          0.01000871	          0.01000992	          0.06417987	          0.27818469	          0.16479617	          0.13170534	          0.09346735	          0.05204794	          0.01011278	          0.01008253	          0.01406959	          0.01004782	          0.01000362	          0.01000570	          0.34636480	          0.01000097	          0.01000163	          0.01000203	          0.01000288	          0.01000426	          0.01001163	          0.05137970	          0.01440930	          0.04874204	          0.10785006	          0.01136600	          0.34609132	          0.15493122	          0.32247802	          0.01148243	          0.01437821	          0.02269194	          0.16496240	          0.17124999	          0.01003714	          0.02750916	          0.06018403	          0.02968852	
          7.84000000	         -6.39188240	        -14.12598992	        119.94948874	         -1.80516426	          1.39621702	          0.06426777	         26.30368272	        -25.96549400	          8.13352681	         52.01168557	        -29.31974469	          1.46922311	         61.66281580	         54.08783483	         -5.61027767	          2.70487626	        -16.63857457	        -25.76913391	          0.09416945	          0.02807249	        -37.68070605	         12.12595511	         19.23401626	       -180.00516076	        -15.31077768	       -297.43719638	       -339.58720812	         -2.56711771	         32.33216916	         58.88591993	         55.23876151	         79.12954699	         82.10484264	          0.01405447	          0.22817700	          0.01000586	          0.01000407	          0.01001355	          0.41496830	          0.99724368	          0.46815825	          0.32514550	          0.15380284	          0.01005630	          0.01002154	          0.20045735	          0.30147604	          0.01136186	          0.13594384	          0.31821258	          0.01000141	          0.01000257	          0.01000395	          0.01000452	          0.01000999	          0.01712722	          0.50147921	          0.01245531	          0.13533215	          0.17795332	          0.28353976	          0.98288701	          0.52545641	          0.98763961	          0.01082993	          0.18770983	          0.01000179	          0.02417043	          0.52202165	          0.01001502	          0.01000161	          0.01000059	          0.01000120	          0.04165325	          0.06673630	          0.01000730	          0.01000981	          0.05348360	          0.23182295	          0.13733271	          0.10975763	          0.07789370	          0.04824887	          0.01013205	          0.01008300	          0.01613606	          0.02418245	          0.01000335	          0.01000409	          0.28863832	          0.01000103	          0.01000171	          0.01000207	          0.01000298	          0.01000444	          0.01001169	          0.04281728	          0.01200872	          0.04646131	          0.10484123	          0.01002514	          0.28841213	          0.13746387	          0.69763665	          0.01000405	          0.01198461	          0.01914718	          0.14702919	          0.14270960	          0.01003796	          0.02293345	          0.05015640	          0.02474725	
          7.85000000	         -6.66679025	        -14.60832087	        121.48311790	         -1.78970482	          1.39330474	          0.06894256	         25.82207271	        -25.27098945	          7.27793273	         53.27712756	        -30.08521813	          0.97001934	         63.42817105	         55.91552796	         -5.61205023	          2.68814481	        -15.97564671	        -26.85436697	          0.15885983	          0.03594581	        -37.64846606	         14.18707300	         20.76621977	       -168.93294169	        -22.84054033	       -268.40231236	       -341.24843694	         -2.86356387	         24.37770061	         45.10207481	         57.31589526	         78.78672002	         81.34897083	          0.01871969	          0.32871819	          0.01001106	          0.01000666	          0.01004345	          0.57169382	          0.87475213	          0.39014408	          0.30957729	          0.13989714	          0.01003466	          0.01001420	          0.16706780	          0.25398713	          0.01000565	          0.11328773	          0.26519580	          0.01000131	          0.01000244	          0.01000381	          0.01000410	          0.01000801	          0.01428004	          0.41793809	          0.01039105	          0.12586370	          0.16064623	          0.28734440	          0.93786223	          0.52971722	          0.91012769	          0.01001790	          0.15644114	          0.01000137	          0.02014378	          0.49227533	          0.01000856	          0.01000233	          0.01000086	          0.01000173	          0.03471136	          0.05561369	          0.01000756	          0.01001121	          0.04457006	          0.19318800	          0.11444674	          0.09146802	          0.06491529	          0.04020925	          0.01011435	          0.01009073	          0.01346408	          0.02015787	          0.01000369	          0.01000510	          0.24053295	          0.01000106	          0.01000181	          0.01000226	          0.01000301	          0.01000452	          0.01001206	          0.03568196	          0.01000956	          0.03952248	          0.09334642	          0.01005108	          0.24034483	          0.16341106	          0.58145462	          0.01000477	          0.01000978	          0.02140122	          0.12252694	          0.11892591	          0.01003899	          0.02077264	          0.04300612	          0.02077065	
